<svg xmlns="http://www.w3.org/2000/svg" xmlns:xlink="http://www.w3.org/1999/xlink" viewBox="0 0 157.55 152.2"><defs><style>.cls-1{fill:none;}.cls-2{clip-path:url(#clip-path);}.cls-3{fill:url(#linear-gradient);}.cls-4{clip-path:url(#clip-path-2);}.cls-5{fill:url(#linear-gradient-2);}.cls-6{clip-path:url(#clip-path-3);}.cls-7{fill:url(#linear-gradient-3);}.cls-8{clip-path:url(#clip-path-4);}.cls-9{fill:url(#linear-gradient-4);}</style><clipPath id="clip-path" transform="translate(39.16 36.44)"><path class="cls-1" d="M1.61,27.5a38.46,38.46,0,1,0,75.26,8.59,1.23,1.23,0,0,1,0-.27c0-.2,0-.42,0-.63h0a.69.69,0,0,0,0-.2A38.46,38.46,0,0,0,1.61,27.5"/></clipPath><linearGradient id="linear-gradient" x1="-792.2" y1="1762.46" x2="-791.49" y2="1762.46" gradientTransform="matrix(0, 115.78, 115.78, 0, -204015.53, 91724.54)" gradientUnits="userSpaceOnUse"><stop offset="0" stop-color="#fbe1ee"/><stop offset="0.14" stop-color="#e8dceb"/><stop offset="0.41" stop-color="#b7d0e4"/><stop offset="0.49" stop-color="#a7cce2"/><stop offset="0.56" stop-color="#a0cbe1"/><stop offset="0.66" stop-color="#8dc8df"/><stop offset="0.78" stop-color="#6ec3dc"/><stop offset="0.91" stop-color="#44bcd7"/><stop offset="1" stop-color="#21b7d3"/></linearGradient><clipPath id="clip-path-2" transform="translate(39.16 36.44)"><path class="cls-1" d="M7.08,46.25,7,46.34c-8.24,5.49-8.08,17.8.32,26.46,19,19.54,57.89,3,67.18-19.81-1.4,3.33-11.74,24.54-32.88,16.59C34.84,67,31,60.63,28.79,54.06c-.15-.46-.38-.89-.57-1.35A14.21,14.21,0,0,0,7.08,46.25"/></clipPath><linearGradient id="linear-gradient-2" x1="-794.88" y1="1734.56" x2="-794.17" y2="1734.56" gradientTransform="matrix(-63.92, 0, 0, 63.92, -50764.89, -110803.12)" gradientUnits="userSpaceOnUse"><stop offset="0" stop-color="#5a80ad"/><stop offset="0.49" stop-color="#38a1c4"/><stop offset="0.87" stop-color="#21b7d3"/><stop offset="1" stop-color="#21b7d3"/></linearGradient><clipPath id="clip-path-3" transform="translate(39.16 36.44)"><path class="cls-1" d="M45.07,25.62a26.6,26.6,0,0,0-1.7,5.6,25.56,25.56,0,0,0,48,16.05,24.27,24.27,0,0,0,1.06-2.44c.23-.58.43-1.18.61-1.79a25.24,25.24,0,0,0,.59-12.17,24.18,24.18,0,0,0-.86-3.27,15,15,0,0,0-.53-1.41A25.42,25.42,0,0,0,75.8,11.27a22.23,22.23,0,0,0-3.52-.78c-.24,0-.47-.08-.72-.1-.44-.06-.91-.11-1.37-.14s-1.11-.05-1.67-.05A25.58,25.58,0,0,0,45.07,25.62"/></clipPath><linearGradient id="linear-gradient-3" x1="-792.54" y1="1762.39" x2="-791.83" y2="1762.39" gradientTransform="matrix(0, 113.92, 113.92, 0, -200700.6, 90299.75)" gradientUnits="userSpaceOnUse"><stop offset="0" stop-color="#fbe1ee"/><stop offset="0.1" stop-color="#efdeec"/><stop offset="0.29" stop-color="#cfd6e8"/><stop offset="0.49" stop-color="#a7cce2"/><stop offset="0.56" stop-color="#a0cbe1"/><stop offset="0.66" stop-color="#8dc8df"/><stop offset="0.78" stop-color="#6ec3dc"/><stop offset="0.91" stop-color="#44bcd7"/><stop offset="1" stop-color="#21b7d3"/></linearGradient><clipPath id="clip-path-4" transform="translate(39.16 36.44)"><path class="cls-1" d="M8.66,45.32a17.85,17.85,0,0,1,9.3-.7,12,12,0,0,1,7.19,5.2,32.44,32.44,0,0,1,2.36,4c.66,1.36,1.31,2.84,2,4.34a28.61,28.61,0,0,0,5.67,8,22.42,22.42,0,0,0,8.46,5.16,18.78,18.78,0,0,0,9.86.44c6.56-1.32,11.9-5.63,15.94-10.48A41.82,41.82,0,0,1,61.85,67a23,23,0,0,1-8.65,3.22,18.14,18.14,0,0,1-9-.72,20.8,20.8,0,0,1-7.64-4.79,27.25,27.25,0,0,1-5.37-7.44c-1.32-2.74-2.7-5.9-4.81-8.41s-4.89-4.8-8.25-5.24a15.79,15.79,0,0,0-1.94-.12,17.07,17.07,0,0,0-7.54,1.8"/></clipPath><linearGradient id="linear-gradient-4" x1="-792.75" y1="1767.85" x2="-792.04" y2="1767.85" gradientTransform="matrix(0, 85.35, 85.35, 0, -150850.51, 67689.42)" xlink:href="#linear-gradient-3"/></defs><g id="Layer_2" data-name="Layer 2"><g id="T0"><g class="cls-2"><rect class="cls-3" x="-18.77" y="-15.62" width="110.23" height="108.97" transform="translate(24.18 61.29) rotate(-31.64)"/></g><g class="cls-4"><rect class="cls-5" x="-7.14" y="32.75" width="87.45" height="70.64" transform="translate(18.9 52.16) rotate(-19.1)"/></g><g class="cls-6"><rect class="cls-7" x="31.01" y="0.42" width="73.58" height="74.04" transform="matrix(0.86, -0.51, 0.51, 0.86, 29.56, 76.6)"/></g><g class="cls-8"><rect class="cls-9" x="7.08" y="26.53" width="63.92" height="62.94" transform="translate(9.88 79.55) rotate(-43.76)"/></g></g></g></svg>