<svg xmlns="http://www.w3.org/2000/svg" xmlns:xlink="http://www.w3.org/1999/xlink" viewBox="0 0 138.64 131.62"><defs><style>.cls-1{fill:none;}.cls-2{clip-path:url(#clip-path);}.cls-3{fill:url(#linear-gradient);}.cls-4{clip-path:url(#clip-path-2);}.cls-5{fill:url(#linear-gradient-2);}.cls-6{clip-path:url(#clip-path-3);}.cls-7{fill:url(#linear-gradient-3);}.cls-8{clip-path:url(#clip-path-4);}.cls-9{fill:url(#linear-gradient-4);}.cls-10{clip-path:url(#clip-path-5);}.cls-11{fill:url(#linear-gradient-5);}.cls-12{clip-path:url(#clip-path-6);}.cls-13{fill:url(#linear-gradient-6);}.cls-14{clip-path:url(#clip-path-7);}.cls-15{fill:url(#linear-gradient-7);}.cls-16{clip-path:url(#clip-path-8);}.cls-17{fill:url(#linear-gradient-8);}</style><clipPath id="clip-path" transform="translate(22.93 22.02)"><path class="cls-1" d="M.72,58.27a11.71,11.71,0,1,0,15-7,11.85,11.85,0,0,0-4-.71,11.72,11.72,0,0,0-11,7.68"/></clipPath><linearGradient id="linear-gradient" x1="-595.57" y1="1646.09" x2="-594.85" y2="1646.09" gradientTransform="matrix(-32.84, 0, 0, 32.84, -19535.49, -53997.73)" gradientUnits="userSpaceOnUse"><stop offset="0" stop-color="#5a80ad"/><stop offset="0.04" stop-color="#5684b0"/><stop offset="0.43" stop-color="#39a0c3"/><stop offset="0.76" stop-color="#27b1cf"/><stop offset="1" stop-color="#21b7d3"/></linearGradient><clipPath id="clip-path-2" transform="translate(22.93 22.02)"><path class="cls-1" d="M22.86,58.88A11.71,11.71,0,0,1,.57,65.72c-.07-.17-.13-.33-.19-.5a11.71,11.71,0,1,0,22.35-6.91c.05.19.1.38.13.57"/></clipPath><linearGradient id="linear-gradient-2" x1="-565.18" y1="1619.28" x2="-564.47" y2="1619.28" gradientTransform="matrix(-44.08, 0, 0, 44.08, -24884.57, -71311.88)" gradientUnits="userSpaceOnUse"><stop offset="0" stop-color="#fbe1ee"/><stop offset="0.14" stop-color="#e8dceb"/><stop offset="0.41" stop-color="#b7d0e4"/><stop offset="0.49" stop-color="#a7cce2"/><stop offset="0.56" stop-color="#a0cbe1"/><stop offset="0.66" stop-color="#8bc8df"/><stop offset="0.79" stop-color="#6ac2db"/><stop offset="0.93" stop-color="#3cbbd6"/><stop offset="1" stop-color="#21b7d3"/></linearGradient><clipPath id="clip-path-3" transform="translate(22.93 22.02)"><path class="cls-1" d="M22.05,64.18a11.71,11.71,0,0,1-21.81.46,5.47,5.47,0,0,0,.13.55,0,0,0,0,0,0,0c.06.17.12.33.19.5a11.71,11.71,0,0,0,22.29-6.84c0-.19-.08-.38-.13-.57h0c-.06-.16-.13-.33-.2-.49a11.64,11.64,0,0,1-.48,6.37"/></clipPath><linearGradient id="linear-gradient-3" x1="-607.05" y1="1645.13" x2="-606.34" y2="1645.13" gradientTransform="matrix(-26.3, 0, 0, 26.3, -15939.26, -43192.95)" xlink:href="#linear-gradient"/><clipPath id="clip-path-4" transform="translate(22.93 22.02)"><path class="cls-1" d="M.72,58.27a11.73,11.73,0,0,0-.48,6.37,11.71,11.71,0,0,0,21.81-.46,11.64,11.64,0,0,0,.48-6.37,11.7,11.7,0,0,0-6.78-6.51,11.85,11.85,0,0,0-4-.71,11.73,11.73,0,0,0-11,7.68"/></clipPath><linearGradient id="linear-gradient-4" x1="-599.38" y1="1645.77" x2="-598.67" y2="1645.77" gradientTransform="matrix(-30.32, 0, 0, 30.32, -18152.35, -49843.6)" xlink:href="#linear-gradient"/><clipPath id="clip-path-5" transform="translate(22.93 22.02)"><path class="cls-1" d="M6.88,42.06A35.89,35.89,0,1,0,44.28,7.75l-1.57,0A35.89,35.89,0,0,0,6.88,42.06"/></clipPath><linearGradient id="linear-gradient-5" x1="-552.65" y1="1665.05" x2="-551.93" y2="1665.05" gradientTransform="matrix(0, 98, 98, 0, -163138.12, 54175.62)" gradientUnits="userSpaceOnUse"><stop offset="0" stop-color="#fbe1ee"/><stop offset="0.11" stop-color="#e8dceb"/><stop offset="0.34" stop-color="#b7d0e4"/><stop offset="0.41" stop-color="#a7cce2"/><stop offset="0.48" stop-color="#a0cbe1"/><stop offset="0.57" stop-color="#8dc8df"/><stop offset="0.68" stop-color="#6ec3dc"/><stop offset="0.81" stop-color="#44bcd7"/><stop offset="0.9" stop-color="#21b7d3"/><stop offset="1" stop-color="#21b7d3"/></linearGradient><clipPath id="clip-path-6" transform="translate(22.93 22.02)"><path class="cls-1" d="M54.59,12.8A19.49,19.49,0,1,0,72.91,0,19.52,19.52,0,0,0,54.59,12.8"/></clipPath><linearGradient id="linear-gradient-6" x1="-535.4" y1="1626.66" x2="-534.69" y2="1626.66" gradientTransform="matrix(0, -54.72, -54.72, 0, 89084.79, -29260.97)" gradientUnits="userSpaceOnUse"><stop offset="0" stop-color="#21b7d3"/><stop offset="0.08" stop-color="#42bcd7"/><stop offset="0.21" stop-color="#6dc3dc"/><stop offset="0.33" stop-color="#8dc8df"/><stop offset="0.42" stop-color="#a0cbe1"/><stop offset="0.49" stop-color="#a7cce2"/><stop offset="0.59" stop-color="#b9d0e5"/><stop offset="0.86" stop-color="#e9dceb"/><stop offset="1" stop-color="#fbe1ee"/></linearGradient><clipPath id="clip-path-7" transform="translate(22.93 22.02)"><path class="cls-1" d="M80.2,26.23c-2.4,4.33-7,5.47-11.85,5.26-.38,0-2.77-.26-3.59-.33-3.44-.32-7.79-1.39-11.47,1.15a10.7,10.7,0,0,0-4.48,8.41,11.07,11.07,0,0,0,3.5,8.55,12.31,12.31,0,0,0,1.77,1.29,15.92,15.92,0,0,1,7.27,13.92,17.83,17.83,0,0,1-.26,2.24,15.66,15.66,0,0,1-9.86,11.75h0a17.22,17.22,0,0,0,4.37-1.16c23-9.44,36.2-25.3,32.47-48.11-.51-3.11-2.69-5-4.75-5a3.53,3.53,0,0,0-3.11,2"/></clipPath><linearGradient id="linear-gradient-7" x1="-542.8" y1="1664.15" x2="-542.09" y2="1664.15" gradientTransform="matrix(96.1, 0, 0, -96.1, 52199.66, 159982.83)" gradientUnits="userSpaceOnUse"><stop offset="0" stop-color="#5a80ad"/><stop offset="0.21" stop-color="#5a80ad"/><stop offset="0.65" stop-color="#38a1c4"/><stop offset="1" stop-color="#21b7d3"/></linearGradient><clipPath id="clip-path-8" transform="translate(22.93 22.02)"><path class="cls-1" d="M64.93,29.85c-3.31-.58-6.71-1-10,.1a12.19,12.19,0,0,0-6.89,6.34,10.69,10.69,0,0,0-.63,8.09c.94,2.71,3.08,4.8,5.22,6.71,2.78,2.48,5.4,5.18,6.67,8.76a14.24,14.24,0,0,1-.66,11.62,17,17,0,0,1-7.37,7,15.45,15.45,0,0,0,7.42-23.93c-1.73-2.3-4.06-4.07-6-6.15-2.92-3.08-4.62-6.9-2.8-11a10.64,10.64,0,0,1,8.79-6.42,32.08,32.08,0,0,1,6,.44,25.4,25.4,0,0,0,7.54.29c3.5-.55,6.89-2.57,8.21-5.86-3.37,5.7-9.93,5.06-15.54,4.06"/></clipPath><linearGradient id="linear-gradient-8" x1="-563.86" y1="1642.24" x2="-563.15" y2="1642.24" gradientTransform="matrix(-92.31, 0, 0, 92.31, -51956.16, -151549.28)" gradientUnits="userSpaceOnUse"><stop offset="0" stop-color="#bcd2e5"/><stop offset="0.17" stop-color="#e1dbea"/><stop offset="0.31" stop-color="#fbe1ee"/><stop offset="0.39" stop-color="#e8dceb"/><stop offset="0.57" stop-color="#b7d0e4"/><stop offset="0.62" stop-color="#a7cce2"/><stop offset="0.65" stop-color="#a0cbe1"/><stop offset="0.7" stop-color="#8dc8df"/><stop offset="0.76" stop-color="#6ec3dc"/><stop offset="0.83" stop-color="#44bcd7"/><stop offset="0.87" stop-color="#21b7d3"/><stop offset="1" stop-color="#21b7d3"/></linearGradient></defs><g id="Layer_2" data-name="Layer 2"><g id="T0"><g class="cls-2"><rect class="cls-3" x="-4.54" y="46.35" width="32.52" height="33.41" transform="translate(-28.59 74.38) rotate(-69.88)"/></g><g class="cls-4"><rect class="cls-5" x="-1.13" y="56.11" width="26.35" height="21.62" transform="translate(9.53 25.89) rotate(-11.78)"/></g><g class="cls-6"><rect class="cls-7" x="-0.02" y="52.44" width="23.55" height="27.36" transform="translate(-31.44 76.44) rotate(-69.88)"/></g><g class="cls-8"><rect class="cls-9" x="-3.29" y="47.2" width="29.35" height="29.56" transform="matrix(0.34, -0.94, 0.94, 0.34, -27.79, 73.37)"/></g><g class="cls-10"><rect class="cls-11" x="-6.12" y="-5.02" width="97.71" height="98.07" transform="translate(7.22 84.68) rotate(-63.54)"/></g><g class="cls-12"><rect class="cls-13" x="42.64" y="-9.48" width="60.55" height="60.5" transform="translate(29.12 78.79) rotate(-44.25)"/></g><g class="cls-14"><rect class="cls-15" x="43.9" y="20.61" width="52.66" height="61.48" transform="translate(14.45 36.32) rotate(-10.97)"/></g><g class="cls-16"><rect class="cls-17" x="32.7" y="21.72" width="61.61" height="60.8" transform="translate(4.96 84.69) rotate(-46.76)"/></g></g></g></svg>