<svg xmlns="http://www.w3.org/2000/svg" xmlns:xlink="http://www.w3.org/1999/xlink" viewBox="0 0 145.62 137.85"><defs><style>.cls-1{fill:none;}.cls-2{clip-path:url(#clip-path);}.cls-3{fill:url(#linear-gradient);}.cls-4{clip-path:url(#clip-path-2);}.cls-5{fill:url(#linear-gradient-2);}.cls-6{clip-path:url(#clip-path-3);}.cls-7{fill:url(#linear-gradient-3);}.cls-8{clip-path:url(#clip-path-4);}.cls-9{fill:url(#linear-gradient-4);}.cls-10{clip-path:url(#clip-path-5);}.cls-11{fill:url(#linear-gradient-5);}.cls-12{clip-path:url(#clip-path-6);}.cls-13{fill:url(#linear-gradient-6);}.cls-14{clip-path:url(#clip-path-7);}.cls-15{fill:url(#linear-gradient-7);}.cls-16{clip-path:url(#clip-path-8);}.cls-17{fill:url(#linear-gradient-8);}.cls-18{clip-path:url(#clip-path-9);}.cls-19{fill:url(#linear-gradient-9);}.cls-20{clip-path:url(#clip-path-10);}.cls-21{fill:url(#linear-gradient-10);}.cls-22{clip-path:url(#clip-path-11);}.cls-23{fill:url(#linear-gradient-11);}</style><clipPath id="clip-path" transform="translate(30.43 28.75)"><path class="cls-1" d="M40.61,30.89,53,73.93h0L65.32,59.06c.15-.35.3-.69.43-1.06a33.25,33.25,0,0,0,1.17-3.62,33.75,33.75,0,0,0-1-20.62,17.68,17.68,0,0,0,12,10.71,17.93,17.93,0,0,0,6,.52c.79-.12,1.6-.24,2.42-.39l5-1.93L73.81,11.9l-4.43,3.48c-.24.29-.5.55-.76.81a17.43,17.43,0,0,0-3.37,6.63,17.65,17.65,0,0,0,.48,10.57A34,34,0,0,0,35.08,11.7Z"/></clipPath><linearGradient id="linear-gradient" x1="-668.61" y1="1864.92" x2="-667.9" y2="1864.92" gradientTransform="matrix(0, 89.71, 89.71, 0, -167243.89, 59987.36)" gradientUnits="userSpaceOnUse"><stop offset="0" stop-color="#fbe1ee"/><stop offset="0.14" stop-color="#e8dceb"/><stop offset="0.41" stop-color="#b7d0e4"/><stop offset="0.49" stop-color="#a7cce2"/><stop offset="0.56" stop-color="#a0cbe1"/><stop offset="0.66" stop-color="#8dc8df"/><stop offset="0.78" stop-color="#6ec3dc"/><stop offset="0.91" stop-color="#44bcd7"/><stop offset="1" stop-color="#21b7d3"/></linearGradient><clipPath id="clip-path-2" transform="translate(30.43 28.75)"><path class="cls-1" d="M20.81,14.36A15.7,15.7,0,0,0,26.5,27.87a15.15,15.15,0,0,0,1.28.95A15.73,15.73,0,0,0,52.15,16.9a34.22,34.22,0,0,0-17.07-5.2,33.69,33.69,0,0,0-10.15,1.24,12.42,12.42,0,0,0-2.55-2.23c-.21-.14-.43-.27-.65-.4a15.53,15.53,0,0,0-.92,4"/></clipPath><linearGradient id="linear-gradient-2" x1="-671.62" y1="1880.91" x2="-670.91" y2="1880.91" gradientTransform="matrix(0, 43.97, 43.97, 0, -82669.36, 29535.23)" xlink:href="#linear-gradient"/><clipPath id="clip-path-3" transform="translate(30.43 28.75)"><path class="cls-1" d="M24.93,12.94a32.84,32.84,0,0,0-4.12,1.42A34,34,0,1,0,53,73.93h0A33.84,33.84,0,0,0,65.32,59.06c.15-.35.3-.69.43-1.06a33.25,33.25,0,0,0,1.17-3.62,33.75,33.75,0,0,0-1-20.62l-.15-.37A34,34,0,0,0,35.08,11.7l-1.07,0a33.62,33.62,0,0,0-9.08,1.26"/></clipPath><linearGradient id="linear-gradient-3" x1="-668.35" y1="1864.05" x2="-667.63" y2="1864.05" gradientTransform="matrix(0, 95.39, 95.39, 0, -177780.51, 63767.72)" xlink:href="#linear-gradient"/><clipPath id="clip-path-4" transform="translate(30.43 28.75)"><path class="cls-1" d="M68.62,16.19a17.43,17.43,0,0,0-3.37,6.63,17.65,17.65,0,0,0,.48,10.57l.15.37a17.68,17.68,0,0,0,12,10.71,17.93,17.93,0,0,0,6,.52,17.1,17.1,0,0,0,2.38-.38h.07a18.17,18.17,0,0,0,5-1.92,17.71,17.71,0,0,0-4.34-32.46,18,18,0,0,0-4.51-.58,17.76,17.76,0,0,0-13.76,6.56"/></clipPath><linearGradient id="linear-gradient-4" x1="-658.14" y1="1866.31" x2="-657.43" y2="1866.31" gradientTransform="matrix(76.6, 0, 0, -76.6, 50471.75, 142989.2)" xlink:href="#linear-gradient"/><clipPath id="clip-path-5" transform="translate(30.43 28.75)"><path class="cls-1" d="M4.45,14.33a12.94,12.94,0,0,0,.08,14.43,12.73,12.73,0,0,0,3.54,3.51,13,13,0,0,0,18-3.62q.26-.39.48-.78a12.92,12.92,0,0,0-1.57-14.93,12.42,12.42,0,0,0-2.55-2.23c-.21-.14-.43-.27-.65-.4a12.92,12.92,0,0,0-17.28,4"/></clipPath><linearGradient id="linear-gradient-5" x1="-672.73" y1="1887.64" x2="-672.02" y2="1887.64" gradientTransform="matrix(0, 36.31, 36.31, 0, -68515.84, 24432.77)" xlink:href="#linear-gradient"/><clipPath id="clip-path-6" transform="translate(30.43 28.75)"><path class="cls-1" d="M24.93,12.93a30.85,30.85,0,0,0-4.12,1.43c-.29.11-.56.23-.85.37a34.07,34.07,0,0,0-15.43,14A33.69,33.69,0,0,0,1.13,37,34,34,0,0,0,53,73.92h0A33.72,33.72,0,0,0,63.46,62.75a31.2,31.2,0,0,0,1.86-3.7c.15-.35.29-.69.42-1a33.29,33.29,0,0,0,1.18-3.62,30.24,30.24,0,0,0,.71-3.48,19.05,19.05,0,0,0-25.47-18A16.52,16.52,0,0,0,52.71,17.26q-.28-.2-.57-.36a34,34,0,0,0-9.44-4.09,33.64,33.64,0,0,0-7.63-1.11c-.36,0-.71,0-1.07,0a33.89,33.89,0,0,0-9.07,1.25"/></clipPath><linearGradient id="linear-gradient-6" x1="-668.35" y1="1864.04" x2="-667.63" y2="1864.04" gradientTransform="matrix(0, 95.39, 95.39, 0, -177780.31, 63768.03)" xlink:href="#linear-gradient"/><clipPath id="clip-path-7" transform="translate(30.43 28.75)"><path class="cls-1" d="M80.53,9.72A17.61,17.61,0,0,0,66.34,19.84c-.06.12-.11.24-.16.36a17.61,17.61,0,0,0,.9,16,18,18,0,0,0,2,2.8,18.26,18.26,0,0,1-1.23-1.83,17.66,17.66,0,0,1-.9-16c.06-.12.1-.24.16-.36a17.71,17.71,0,0,1,29.29-4.26,17.7,17.7,0,0,0-14-6.92,16,16,0,0,0-1.83.1"/></clipPath><linearGradient id="linear-gradient-7" x1="-700.09" y1="1872.1" x2="-699.37" y2="1872.1" gradientTransform="matrix(0, 33.97, 33.97, 0, -63522.84, 23795.04)" xlink:href="#linear-gradient"/><clipPath id="clip-path-8" transform="translate(30.43 28.75)"><path class="cls-1" d="M23.38,7q-.22.34-.42.69l.06-.1A16.48,16.48,0,0,1,50.76,9.75c.28.5.55,1,.82,1.51,0-.09-.08-.19-.12-.28a.19.19,0,0,1,0-.08c-.15-.36-.29-.75-.42-1.14A15.71,15.71,0,0,0,23.38,7"/></clipPath><linearGradient id="linear-gradient-8" x1="-578.68" y1="1767.02" x2="-577.97" y2="1767.02" gradientTransform="matrix(0, -11.73, -11.73, 0, 20763.27, -6780.91)" xlink:href="#linear-gradient"/><clipPath id="clip-path-9" transform="translate(30.43 28.75)"><path class="cls-1" d="M53.05,13.86c-.51-.87-1-1.73-1.47-2.6a15.14,15.14,0,0,0,1.47,2.6"/></clipPath><linearGradient id="linear-gradient-9" x1="-900.9" y1="2088.82" x2="-900.18" y2="2088.82" gradientTransform="matrix(0, 4.18, 4.18, 0, -8685.46, 3779.58)" gradientUnits="userSpaceOnUse"><stop offset="0" stop-color="#5a80ad"/><stop offset="0.56" stop-color="#38a1c4"/><stop offset="1" stop-color="#21b7d3"/></linearGradient><clipPath id="clip-path-10" transform="translate(30.43 28.75)"><path class="cls-1" d="M19,16.13a16.5,16.5,0,0,0,21.82,18.3l.38-.15a19,19,0,0,1,17,2.07c.34.23.68.47,1,.72A19,19,0,0,1,65.9,56.31,32.32,32.32,0,0,1,65,59.78a25.38,25.38,0,0,0,1.48-3.9c.15-.5.3-1,.43-1.5a30.24,30.24,0,0,0,.71-3.48,19.05,19.05,0,0,0-25.47-18l-.38.15A16.5,16.5,0,0,1,20,14.73a15.9,15.9,0,0,1,2-5.56,16.36,16.36,0,0,0-3,7"/></clipPath><linearGradient id="linear-gradient-10" x1="-656.42" y1="1868.98" x2="-655.71" y2="1868.98" gradientTransform="matrix(65.64, 0, 0, -65.64, 43117.5, 122704.99)" xlink:href="#linear-gradient"/><clipPath id="clip-path-11" transform="translate(30.43 28.75)"><path class="cls-1" d="M23,7.62l-.06.1a16.21,16.21,0,0,0-3,7A16.5,16.5,0,0,0,41.78,33l.38-.15A19.07,19.07,0,0,1,66.8,45.22a16.91,16.91,0,0,1,.13,9.12.06.06,0,0,0,0,0A30.72,30.72,0,0,1,65.76,58c4.71-11.56,10.8-12,18.06-13A17.71,17.71,0,0,1,65.87,33.75c0-.12-.1-.24-.14-.37a17.64,17.64,0,0,1,2.88-17.19c-4.45,4.28-11.55,3.33-15.56-2.33a15.14,15.14,0,0,1-1.47-2.6c-.27-.51-.54-1-.82-1.51A16.56,16.56,0,0,0,43.27,2.6a16.06,16.06,0,0,0-7-1.58A16.57,16.57,0,0,0,23,7.62"/></clipPath><linearGradient id="linear-gradient-11" x1="-647.98" y1="1865.76" x2="-647.27" y2="1865.76" gradientTransform="matrix(58.85, 0, 0, -58.85, 38172.78, 109823.15)" xlink:href="#linear-gradient-9"/></defs><g id="Layer_2" data-name="Layer 2"><g id="T0"><g class="cls-2"><rect class="cls-3" x="23.05" y="4.16" width="80.21" height="77.3" transform="translate(27.96 110.49) rotate(-64.81)"/></g><g class="cls-4"><rect class="cls-5" x="19.67" y="2.17" width="33.18" height="38" transform="translate(32.1 73.73) rotate(-64.81)"/></g><g class="cls-6"><rect class="cls-7" x="-14.29" y="-1.13" width="93.73" height="95.14" transform="translate(7.11 84.9) rotate(-64.81)"/></g><g class="cls-8"><rect class="cls-9" x="61.44" y="6.56" width="43.41" height="41.65" transform="translate(26.89 43.94) rotate(-10.22)"/></g><g class="cls-10"><rect class="cls-11" x="-3.08" y="3.92" width="36.87" height="36.94" transform="translate(18.99 55.51) rotate(-64.81)"/></g><g class="cls-12"><rect class="cls-13" x="-14.62" y="-0.63" width="93.26" height="94.13" transform="translate(6.79 84.39) rotate(-64.81)"/></g><g class="cls-14"><rect class="cls-15" x="59.94" y="4.99" width="40.5" height="38.68" transform="translate(26.93 57.38) rotate(-19.81)"/></g><g class="cls-16"><rect class="cls-17" x="21.85" y="-6.99" width="30.85" height="24.49" transform="translate(32.62 47.66) rotate(-29.29)"/></g><g class="cls-18"><rect class="cls-19" x="51.01" y="11.06" width="2.61" height="2.98" transform="translate(31.61 58.04) rotate(-31.61)"/></g><g class="cls-20"><rect class="cls-21" x="13.56" y="4.85" width="58.54" height="59.25" transform="translate(24.57 37.68) rotate(-11.14)"/></g><g class="cls-22"><rect class="cls-23" x="8.59" y="-12.11" width="85.54" height="83.26" transform="translate(22.65 61.76) rotate(-33.27)"/></g></g></g></svg>