<svg xmlns="http://www.w3.org/2000/svg" xmlns:xlink="http://www.w3.org/1999/xlink" viewBox="0 0 135.71 115.75"><defs><style>.cls-1{fill:none;}.cls-2{clip-path:url(#clip-path);}.cls-3{fill:url(#linear-gradient);}.cls-4{clip-path:url(#clip-path-2);}.cls-5{fill:url(#linear-gradient-2);}.cls-6{clip-path:url(#clip-path-3);}.cls-7{fill:url(#linear-gradient-3);}.cls-8{clip-path:url(#clip-path-4);}.cls-9{fill:url(#linear-gradient-4);}.cls-10{clip-path:url(#clip-path-5);}.cls-11{fill:url(#linear-gradient-5);}.cls-12{clip-path:url(#clip-path-6);}.cls-13{fill:url(#linear-gradient-6);}.cls-14{clip-path:url(#clip-path-7);}.cls-15{fill:url(#linear-gradient-7);}.cls-16{clip-path:url(#clip-path-8);}.cls-17{fill:url(#linear-gradient-8);}</style><clipPath id="clip-path" transform="translate(29.29 27.64)"><path class="cls-1" d="M2,14.83A24.32,24.32,0,1,0,24.37,0,24.36,24.36,0,0,0,2,14.83"/></clipPath><linearGradient id="linear-gradient" x1="-684.69" y1="1670.41" x2="-683.98" y2="1670.41" gradientTransform="matrix(0, 61.08, 61.08, 0, -102006.25, 41815.13)" gradientUnits="userSpaceOnUse"><stop offset="0" stop-color="#fbe1ee"/><stop offset="0.14" stop-color="#fbe1ee"/><stop offset="0.27" stop-color="#e8dceb"/><stop offset="0.52" stop-color="#b7d0e4"/><stop offset="0.59" stop-color="#a7cce2"/><stop offset="0.65" stop-color="#a0cbe1"/><stop offset="0.73" stop-color="#8dc8df"/><stop offset="0.82" stop-color="#6ec3dc"/><stop offset="0.93" stop-color="#44bcd7"/><stop offset="1" stop-color="#21b7d3"/></linearGradient><clipPath id="clip-path-2" transform="translate(29.29 27.64)"><path class="cls-1" d="M47.86,19.2a.76.76,0,0,1,0,.15,12.91,12.91,0,0,1-6.49,10.71,13.69,13.69,0,0,1-1.68.81A13.14,13.14,0,0,1,26.86,29a10.13,10.13,0,0,0-1.49-1,9.09,9.09,0,0,0-7.61-.42,8.84,8.84,0,0,0-5.35,5.76,7.53,7.53,0,0,0-.15,3.32,24.3,24.3,0,0,0,2.35,5.94c.28.62,1.11,2.42,1.22,2.71a13.3,13.3,0,0,1,1.08,6.34,29.34,29.34,0,0,0,12.35-2A29.64,29.64,0,0,0,47.88,19.29h0s0-.06,0-.09Z"/></clipPath><linearGradient id="linear-gradient-2" x1="-638.71" y1="1691.98" x2="-637.99" y2="1691.98" gradientTransform="matrix(0, -28, 28, 0, -47347.7, -17839.18)" gradientUnits="userSpaceOnUse"><stop offset="0" stop-color="#fbe1ee"/><stop offset="0.14" stop-color="#e8dceb"/><stop offset="0.41" stop-color="#b7d0e4"/><stop offset="0.49" stop-color="#a7cce2"/><stop offset="0.56" stop-color="#a0cbe1"/><stop offset="0.66" stop-color="#8dc8df"/><stop offset="0.78" stop-color="#6ec3dc"/><stop offset="0.91" stop-color="#44bcd7"/><stop offset="1" stop-color="#21b7d3"/></linearGradient><clipPath id="clip-path-3" transform="translate(29.29 27.64)"><path class="cls-1" d="M13.64,43c2.26,4,4.51,8.93,1.15,13.06l-.11.15h0c-1.89,2.6.84,5.66,4.71,5,.62-.11,1.23-.22,1.82-.36a16.1,16.1,0,0,0-8.65-24.2,2,2,0,0,0-.29-.08c-.38-.12-.79-.22-1.19-.31A18,18,0,0,0,13.64,43"/></clipPath><linearGradient id="linear-gradient-3" x1="-649.44" y1="1688.2" x2="-648.73" y2="1688.2" gradientTransform="translate(-57421.15 -22039.93) rotate(-90) scale(34.02)" gradientUnits="userSpaceOnUse"><stop offset="0" stop-color="#21b7d3"/><stop offset="0.08" stop-color="#42bcd7"/><stop offset="0.21" stop-color="#6dc3dc"/><stop offset="0.33" stop-color="#8dc8df"/><stop offset="0.42" stop-color="#a0cbe1"/><stop offset="0.49" stop-color="#a7cce2"/><stop offset="0.59" stop-color="#b9d0e5"/><stop offset="0.86" stop-color="#e9dceb"/><stop offset="1" stop-color="#fbe1ee"/></linearGradient><clipPath id="clip-path-4" transform="translate(29.29 27.64)"><path class="cls-1" d="M50.83,16.28a1.15,1.15,0,0,1,0,.19A15,15,0,0,1,43.28,28.9a14,14,0,0,1-2,.94,15.28,15.28,0,0,1-14.89-2.21,11.28,11.28,0,0,0-1.72-1.2,10.61,10.61,0,0,0-8.85-.49,10.28,10.28,0,0,0-6.21,6.7,8.68,8.68,0,0,0-.17,3.84c.43,2.56,1.8,4.87,2.73,6.91.32.72,1.28,2.81,1.42,3.15a15.46,15.46,0,0,1,1.24,7.36,9,9,0,0,1-2.29,5l-.16.2a1.15,1.15,0,0,1-.14.17h0c-2.19,3,.93,6.21,5.48,5.8,2.41-.21,3.25.84,3.63,2A3.56,3.56,0,0,0,25,69.54l5.7-.37c8.25-11.06,19.71-34.42,20.5-48.57a16.47,16.47,0,0,0-.3-4.21h0s0-.07,0-.1Z"/></clipPath><linearGradient id="linear-gradient-4" x1="-682.78" y1="1639.1" x2="-682.07" y2="1639.1" gradientTransform="translate(156086.18 65023.99) rotate(90) scale(95.21)" gradientUnits="userSpaceOnUse"><stop offset="0" stop-color="#5a80ad"/><stop offset="0.56" stop-color="#38a1c4"/><stop offset="1" stop-color="#21b7d3"/></linearGradient><clipPath id="clip-path-5" transform="translate(29.29 27.64)"><path class="cls-1" d="M31.09,52.74A13.67,13.67,0,1,0,35,52.17a13.66,13.66,0,0,0-3.91.57"/></clipPath><linearGradient id="linear-gradient-5" x1="-686.49" y1="1613.72" x2="-685.77" y2="1613.72" gradientTransform="matrix(-38.31, 0, 0, 38.31, -26254.69, -61757.47)" xlink:href="#linear-gradient-3"/><clipPath id="clip-path-6" transform="translate(29.29 27.64)"><path class="cls-1" d="M50.82,16.47a16.13,16.13,0,0,1-4,8.76,13.71,13.71,0,0,1-10.32,4.25c-3.65,0-6.91-1.55-10-3.3-2.4-1.34-5-2.62-7.72-2.63a10.35,10.35,0,0,0-7.14,3.12A11.68,11.68,0,0,0,8.05,34.9a10.13,10.13,0,0,0,.06,1.23,21.06,21.06,0,0,0,3,7.83c2.64,4.7,5.24,10.37,1.35,15.17a1.15,1.15,0,0,1-.14.17C14.85,57.07,15.61,53.37,15,50c-.78-4.4-3.71-7.86-4.92-12.08a8,8,0,0,1-.27-1.38A10.44,10.44,0,0,1,13.15,28C16.32,25,20.31,25.37,24,27.06c2.51,1.14,4.84,2.69,7.47,3.54A14.82,14.82,0,0,0,50.84,16.37s0,.07,0,.1"/></clipPath><linearGradient id="linear-gradient-6" x1="-655.12" y1="1645.89" x2="-654.41" y2="1645.89" gradientTransform="matrix(88.49, 0, 0, 88.49, 57974.06, -145611.17)" gradientUnits="userSpaceOnUse"><stop offset="0" stop-color="#bcd2e5"/><stop offset="0.17" stop-color="#e1dbea"/><stop offset="0.31" stop-color="#fbe1ee"/><stop offset="0.39" stop-color="#e8dceb"/><stop offset="0.57" stop-color="#b7d0e4"/><stop offset="0.62" stop-color="#a7cce2"/><stop offset="0.65" stop-color="#a0cbe1"/><stop offset="0.7" stop-color="#8dc8df"/><stop offset="0.76" stop-color="#6ec3dc"/><stop offset="0.83" stop-color="#44bcd7"/><stop offset="0.87" stop-color="#21b7d3"/><stop offset="1" stop-color="#21b7d3"/></linearGradient><clipPath id="clip-path-7" transform="translate(29.29 27.64)"><path class="cls-1" d="M33,29.87A28.71,28.71,0,1,0,59.39,12.41,28.72,28.72,0,0,0,33,29.87"/></clipPath><linearGradient id="linear-gradient-7" x1="-663.95" y1="1633.03" x2="-663.24" y2="1633.03" gradientTransform="translate(53467.83 -131432.93) scale(80.51)" xlink:href="#linear-gradient-2"/><clipPath id="clip-path-8" transform="translate(29.29 27.64)"><path class="cls-1" d="M33,29.87a28.67,28.67,0,0,0,2.17,26.62c-.19-.38-.38-.78-.56-1.17A28.71,28.71,0,0,1,84.19,27c.29.39.55.79.8,1.2a28.71,28.71,0,0,0-52,1.72"/></clipPath><linearGradient id="linear-gradient-8" x1="-681.7" y1="1659.17" x2="-680.99" y2="1659.17" gradientTransform="translate(-73563.29 179306.82) rotate(180) scale(108.05)" gradientUnits="userSpaceOnUse"><stop offset="0" stop-color="#fbe1ee"/><stop offset="0.14" stop-color="#e8dceb"/><stop offset="0.41" stop-color="#b7d0e4"/><stop offset="0.49" stop-color="#a7cce2"/><stop offset="0.56" stop-color="#a0cbe1"/><stop offset="0.66" stop-color="#8bc8df"/><stop offset="0.79" stop-color="#6ac2db"/><stop offset="0.93" stop-color="#3cbbd6"/><stop offset="1" stop-color="#21b7d3"/></linearGradient></defs><g id="Layer_2" data-name="Layer 2"><g id="T0"><g class="cls-2"><rect class="cls-3" x="-13.62" y="-11.91" width="75.95" height="75.84" transform="translate(18.07 51.58) rotate(-43.56)"/></g><g class="cls-4"><rect class="cls-5" x="5.95" y="11.21" width="49.24" height="48.57" transform="translate(13.8 54.63) rotate(-38.81)"/></g><g class="cls-6"><rect class="cls-7" x="3.94" y="35.24" width="28.15" height="27.71" transform="translate(-0.71 56.02) rotate(-46.52)"/></g><g class="cls-8"><rect class="cls-9" x="-1.43" y="9.3" width="63.38" height="67.33" transform="translate(11.55 49.22) rotate(-30.84)"/></g><g class="cls-10"><rect class="cls-11" x="17.6" y="49.88" width="34.79" height="33.48" transform="translate(18.95 34.2) rotate(-9.34)"/></g><g class="cls-12"><rect class="cls-13" x="0.51" y="8.9" width="57.91" height="57.87" transform="translate(11.57 74.01) rotate(-62.35)"/></g><g class="cls-14"><rect class="cls-15" x="21.58" y="6.84" width="75.59" height="72.49" transform="matrix(0.98, -0.19, 0.19, 0.98, 22.28, 39.52)"/></g><g class="cls-16"><rect class="cls-17" x="21.1" y="-1" width="71.92" height="69.39" transform="translate(20.29 66.48) rotate(-35.02)"/></g></g></g></svg>