<svg xmlns="http://www.w3.org/2000/svg" xmlns:xlink="http://www.w3.org/1999/xlink" viewBox="0 0 121.75 106.99"><defs><style>.cls-1{fill:none;}.cls-2{clip-path:url(#clip-path);}.cls-3{fill:url(#linear-gradient);}.cls-4{clip-path:url(#clip-path-2);}.cls-5{fill:url(#linear-gradient-2);}.cls-6{clip-path:url(#clip-path-3);}.cls-7{fill:url(#linear-gradient-3);}.cls-8{clip-path:url(#clip-path-4);}.cls-9{fill:url(#linear-gradient-4);}.cls-10{clip-path:url(#clip-path-5);}.cls-11{fill:url(#linear-gradient-5);}</style><clipPath id="clip-path" transform="translate(13.7 8.13)"><path class="cls-1" d="M51.35,18.11l-.06.1a.36.36,0,0,0,.07-.1Z"/></clipPath><linearGradient id="linear-gradient" x1="-12042.48" y1="3732.41" x2="-12041.77" y2="3732.41" gradientTransform="matrix(-0.12, 0, 0, 0.12, -1452.02, -447.79)" gradientUnits="userSpaceOnUse"><stop offset="0" stop-color="#5a80ad"/><stop offset="0.56" stop-color="#38a1c4"/><stop offset="1" stop-color="#21b7d3"/></linearGradient><clipPath id="clip-path-2" transform="translate(13.7 8.13)"><path class="cls-1" d="M33.48.55a40.17,40.17,0,0,0-14.2,73.93,40.41,40.41,0,0,0,14.14,5.29l.08,0c1,.15,1.92.27,2.89.37h0c.2,0,.4,0,.6,0a0,0,0,0,0,0,0A24.34,24.34,0,0,0,49.74,34.47l0,0-.11-.06-.27-.12a8.24,8.24,0,0,1-3-2.69,8.43,8.43,0,0,1,11-12.16l.65.32a8.89,8.89,0,0,0,7,.55,5,5,0,0,0,2.45-2.52,5.9,5.9,0,0,0,.74-3.48A8.94,8.94,0,0,0,64.36,8,41.58,41.58,0,0,0,40,0a38.92,38.92,0,0,0-6.54.55"/></clipPath><linearGradient id="linear-gradient-2" x1="-565.42" y1="1757.86" x2="-564.7" y2="1757.86" gradientTransform="matrix(0, 121.28, 121.28, 0, -213162.75, 68572.15)" gradientUnits="userSpaceOnUse"><stop offset="0" stop-color="#fbe1ee"/><stop offset="0.14" stop-color="#e8dceb"/><stop offset="0.41" stop-color="#b7d0e4"/><stop offset="0.49" stop-color="#a7cce2"/><stop offset="0.56" stop-color="#a0cbe1"/><stop offset="0.66" stop-color="#8dc8df"/><stop offset="0.78" stop-color="#6ec3dc"/><stop offset="0.91" stop-color="#44bcd7"/><stop offset="1" stop-color="#21b7d3"/></linearGradient><clipPath id="clip-path-3" transform="translate(13.7 8.13)"><path class="cls-1" d="M68.44,17.15c-.73.68-1.29,1.45-2,2.1a6.45,6.45,0,0,1-5.24,1.36,13.14,13.14,0,0,1-3.06-.91,20.65,20.65,0,0,0-2.7-1.05A8.43,8.43,0,0,0,45,28,10.52,10.52,0,0,0,45.21,29a8.43,8.43,0,0,0,4.12,5.21l.26.13.11.06,0,0A24.34,24.34,0,0,1,37.07,80.19c15.39,1.82,32.5-6,40.53-20.91a49.82,49.82,0,0,0,2.23-4.73c4.43-10.87,4.65-23.48-1-33.95-1-1.85-2.37-3.84-4.44-4.57a6.1,6.1,0,0,0-2-.35,5.69,5.69,0,0,0-3.9,1.47"/></clipPath><linearGradient id="linear-gradient-3" x1="-566.87" y1="1763.18" x2="-566.16" y2="1763.18" gradientTransform="matrix(0, 91.85, 91.85, 0, -161886.5, 52088.02)" xlink:href="#linear-gradient"/><clipPath id="clip-path-4" transform="translate(13.7 8.13)"><path class="cls-1" d="M64.79,8.65a6.86,6.86,0,0,1,1.41,8.11C64.46,20,58.91,18.51,55,17.12c-4.38-1.56-9.44.75-11.68,4.93s-1.24,11,4.18,14c10.35,5.63,16.06,19,9.6,31A24,24,0,0,1,36.72,80.15h-.28c.2,0,.4,0,.6,0a0,0,0,0,0,0,0A24.27,24.27,0,0,0,59.59,67.41c.27-.51.53-1,.77-1.56a24.4,24.4,0,0,0,1.88-13.54,23,23,0,0,0-.81-3.57A23.87,23.87,0,0,0,52.12,36c-2.36-1.57-5-2.74-6.32-5.4a8.54,8.54,0,0,1,.12-7.75,8.43,8.43,0,0,1,9.48-4.19C57,19,58.39,20,60,20.42a7.26,7.26,0,0,0,6.76-1.36,5.5,5.5,0,0,0,1-1.33,6.38,6.38,0,0,0,0-5.83,10.43,10.43,0,0,0-2.49-3.15,14.24,14.24,0,0,0-1.57-1.21c-.28-.19-.59-.35-.88-.52a18.45,18.45,0,0,1,2,1.63M62.81,7,62,6.47a3.91,3.91,0,0,0,.78.55"/></clipPath><linearGradient id="linear-gradient-4" x1="-569.76" y1="1749.73" x2="-569.05" y2="1749.73" gradientTransform="matrix(-91.77, 0, 0, 91.77, -52209.53, -160530.49)" xlink:href="#linear-gradient-2"/><clipPath id="clip-path-5" transform="translate(13.7 8.13)"><path class="cls-1" d="M67.63,18.11l-.06.1a.36.36,0,0,0,.07-.1Z"/></clipPath><linearGradient id="linear-gradient-5" x1="-12037.53" y1="3680.25" x2="-12036.82" y2="3680.25" gradientTransform="matrix(-0.12, 0, 0, 0.12, -1435.15, -441.19)" xlink:href="#linear-gradient"/></defs><g id="Layer_2" data-name="Layer 2"><g id="T0"><g class="cls-2"><rect class="cls-3" x="51.27" y="18.12" width="0.11" height="0.08" transform="translate(42.09 75.68) rotate(-84.57)"/></g><g class="cls-4"><rect class="cls-5" x="-9.01" y="-3.84" width="81.62" height="88.17" transform="translate(9.39 11.95) rotate(-6.43)"/></g><g class="cls-6"><rect class="cls-7" x="26.13" y="9.11" width="69.3" height="79.47" transform="translate(-0.43 35.3) rotate(-22.65)"/></g><g class="cls-8"><rect class="cls-9" x="12.36" y="11.65" width="80.49" height="63.66" transform="translate(3.03 77.19) rotate(-61.59)"/></g><g class="cls-10"><rect class="cls-11" x="67.55" y="18.12" width="0.11" height="0.08" transform="translate(56.82 91.88) rotate(-84.57)"/></g></g></g></svg>